<svg version="1.1" id="Layer_1" xmlns="http://www.w3.org/2000/svg" xmlns:xlink="http://www.w3.org/1999/xlink" x="0px" y="0px"
	 width="100%" viewBox="0 0 66 66" enable-background="new 0 0 66 66" xml:space="preserve">
<path fill="#000000" opacity="1.000000" stroke="none" 
	d="
M44.000156,67.000000 
	C29.333437,67.000000 15.166776,67.000000 1.000086,67.000000 
	C1.000057,45.000046 1.000057,23.000092 1.000029,1.000103 
	C22.999947,1.000069 44.999893,1.000069 66.999878,1.000035 
	C66.999924,22.999939 66.999924,44.999878 66.999962,66.999908 
	C59.500072,67.000000 52.000141,67.000000 44.000156,67.000000 
M7.000903,34.520935 
	C7.000823,39.844315 7.057267,45.168774 6.956035,50.490227 
	C6.934096,51.643448 6.440629,52.824341 5.994612,53.923618 
	C5.430683,55.313503 3.816583,57.047367 4.217122,57.894321 
	C4.992997,59.534935 6.846746,61.806469 8.277918,61.823784 
	C26.902775,62.049137 45.531883,61.928734 64.159721,61.848331 
	C64.446899,61.847092 64.731506,61.251656 65.389999,60.518688 
	C63.773403,60.188820 62.572224,59.943714 61.411793,59.706928 
	C62.011127,58.051273 62.606407,56.406826 63.304165,54.479275 
	C61.609863,54.105370 60.308624,53.818207 58.999775,53.529366 
	C58.999775,44.326591 59.000725,35.513466 58.999466,26.700342 
	C58.998512,20.010683 58.997265,20.005220 51.995594,20.001930 
	C41.515202,19.997009 31.034786,19.987103 20.554420,20.003904 
	C5.381521,20.028231 7.036427,18.374884 7.000903,34.520935 
M6.008025,10.491283 
	C7.509344,11.945565 8.971686,13.449443 10.606334,14.734068 
	C10.707151,14.813296 12.743326,13.231841 12.852344,12.302599 
	C13.000023,11.043810 12.158329,8.539042 11.734663,8.537667 
	C9.845919,8.531533 7.954896,9.226571 6.008025,10.491283 
M19.413496,7.012578 
	C18.930267,8.928938 18.447041,10.845297 18.000767,12.615105 
	C20.256046,12.615105 22.032404,12.615105 23.601315,12.615105 
	C23.601315,10.781628 23.601315,9.009799 23.601315,7.414352 
	C22.436308,7.284039 21.300415,7.156982 19.413496,7.012578 
M58.448734,6.071747 
	C57.858479,7.940425 57.268223,9.809104 56.693989,11.627062 
	C59.280704,11.627062 61.060238,11.627062 62.616501,11.627062 
	C62.616501,9.753079 62.616501,7.978768 62.616501,6.216709 
	C61.387753,6.327724 60.210693,6.434068 58.448734,6.071747 
M32.164661,16.955395 
	C33.479305,17.091532 34.793953,17.227671 36.198082,17.373075 
	C36.361935,15.675266 36.525925,13.976064 36.688477,12.291774 
	C34.790054,11.904175 32.986786,11.536004 31.044867,11.139525 
	C31.198769,13.294692 31.327074,15.091393 32.164661,16.955395 
z"/>
<path fill="#F8D568" opacity="1.000000" stroke="none" 
	d="
M7.000903,34.026657 
	C7.036427,18.374884 5.381521,20.028231 20.554420,20.003904 
	C31.034786,19.987103 41.515202,19.997009 51.995594,20.001930 
	C58.997265,20.005220 58.998512,20.010683 58.999466,26.700342 
	C59.000725,35.513466 58.999775,44.326591 58.999775,53.529366 
	C60.308624,53.818207 61.609863,54.105370 63.304165,54.479275 
	C62.606407,56.406826 62.011127,58.051273 61.411793,59.706928 
	C62.572224,59.943714 63.773403,60.188820 65.389999,60.518688 
	C64.731506,61.251656 64.446899,61.847092 64.159721,61.848331 
	C45.531883,61.928734 26.902775,62.049137 8.277918,61.823784 
	C6.846746,61.806469 4.992997,59.534935 4.217122,57.894321 
	C3.816583,57.047367 5.430683,55.313503 5.994612,53.923618 
	C6.440629,52.824341 6.934096,51.643448 6.956035,50.490227 
	C7.057267,45.168774 7.000823,39.844315 7.000903,34.026657 
M57.000221,38.501450 
	C56.999607,34.176628 57.264881,29.825169 56.835949,25.543253 
	C56.707664,24.262672 54.656506,22.175615 53.456291,22.154375 
	C39.820717,21.913076 26.178524,21.938778 12.540852,22.110844 
	C11.357541,22.125774 9.195518,23.662531 9.173828,24.534328 
	C8.931530,34.273533 9.020885,44.020992 9.020885,53.699272 
	C25.325300,53.699272 41.035679,53.699272 57.000221,53.699272 
	C57.000221,48.766830 57.000221,44.132301 57.000221,38.501450 
M10.261849,59.986214 
	C24.588352,59.990871 38.916656,60.108788 53.239445,59.880417 
	C55.436058,59.845390 57.607212,58.213634 59.790138,57.320354 
	C59.593254,56.880852 59.396366,56.441345 59.199482,56.001842 
	C54.203388,56.001842 49.206547,55.956268 44.211815,56.038811 
	C43.164524,56.056118 42.067738,56.416092 41.095757,56.847801 
	C39.735088,57.452148 38.431057,58.950474 37.171146,58.878006 
	C32.552982,58.612366 28.223015,59.152405 23.365650,56.535740 
	C18.949635,54.156822 12.241807,56.032234 6.544267,56.032234 
	C6.301550,56.457710 6.058833,56.883186 5.816116,57.308659 
	C7.016394,58.161991 8.216672,59.015324 10.261849,59.986214 
z"/>
<path fill="#F8D468" opacity="1.000000" stroke="none" 
	d="
M6.036361,10.079768 
	C7.954896,9.226571 9.845919,8.531533 11.734663,8.537667 
	C12.158329,8.539042 13.000023,11.043810 12.852344,12.302599 
	C12.743326,13.231841 10.707151,14.813296 10.606334,14.734068 
	C8.971686,13.449443 7.509344,11.945565 6.036361,10.079768 
z"/>
<path fill="#F8D567" opacity="1.000000" stroke="none" 
	d="
M19.789009,7.021252 
	C21.300415,7.156982 22.436308,7.284039 23.601315,7.414352 
	C23.601315,9.009799 23.601315,10.781628 23.601315,12.615105 
	C22.032404,12.615105 20.256046,12.615105 18.000767,12.615105 
	C18.447041,10.845297 18.930267,8.928938 19.789009,7.021252 
z"/>
<path fill="#F8D566" opacity="1.000000" stroke="none" 
	d="
M58.741180,6.306080 
	C60.210693,6.434068 61.387753,6.327724 62.616501,6.216709 
	C62.616501,7.978768 62.616501,9.753079 62.616501,11.627062 
	C61.060238,11.627062 59.280704,11.627062 56.693989,11.627062 
	C57.268223,9.809104 57.858479,7.940425 58.741180,6.306080 
z"/>
<path fill="#F8D568" opacity="1.000000" stroke="none" 
	d="
M31.810020,16.921745 
	C31.327074,15.091393 31.198769,13.294692 31.044867,11.139525 
	C32.986786,11.536004 34.790054,11.904175 36.688477,12.291774 
	C36.525925,13.976064 36.361935,15.675266 36.198082,17.373075 
	C34.793953,17.227671 33.479305,17.091532 31.810020,16.921745 
z"/>
<path fill="#000000" opacity="1.000000" stroke="none" 
	d="
M57.000221,38.999611 
	C57.000221,44.132301 57.000221,48.766830 57.000221,53.699272 
	C41.035679,53.699272 25.325300,53.699272 9.020885,53.699272 
	C9.020885,44.020992 8.931530,34.273533 9.173828,24.534328 
	C9.195518,23.662531 11.357541,22.125774 12.540852,22.110844 
	C26.178524,21.938778 39.820717,21.913076 53.456291,22.154375 
	C54.656506,22.175615 56.707664,24.262672 56.835949,25.543253 
	C57.264881,29.825169 56.999607,34.176628 57.000221,38.999611 
M11.001387,26.702259 
	C11.001387,34.771923 11.001387,42.841587 11.001387,50.634018 
	C26.116390,50.634018 40.500683,50.634018 54.624367,50.634018 
	C54.624367,41.537952 54.624367,32.812244 54.624367,24.001091 
	C40.942200,24.001091 27.634121,23.959827 14.327426,24.076422 
	C13.216877,24.086153 12.115654,25.160059 11.001387,26.702259 
z"/>
<path fill="#000000" opacity="1.000000" stroke="none" 
	d="
M9.839399,59.927433 
	C8.216672,59.015324 7.016394,58.161991 5.816116,57.308659 
	C6.058833,56.883186 6.301550,56.457710 6.544267,56.032234 
	C12.241807,56.032234 18.949635,54.156822 23.365650,56.535740 
	C28.223015,59.152405 32.552982,58.612366 37.171146,58.878006 
	C38.431057,58.950474 39.735088,57.452148 41.095757,56.847801 
	C42.067738,56.416092 43.164524,56.056118 44.211815,56.038811 
	C49.206547,55.956268 54.203388,56.001842 59.199482,56.001842 
	C59.396366,56.441345 59.593254,56.880852 59.790138,57.320354 
	C57.607212,58.213634 55.436058,59.845390 53.239445,59.880417 
	C38.916656,60.108788 24.588352,59.990871 9.839399,59.927433 
z"/>
<path fill="#F8D468" opacity="1.000000" stroke="none" 
	d="
M11.005742,26.220901 
	C12.115654,25.160059 13.216877,24.086153 14.327426,24.076422 
	C27.634121,23.959827 40.942200,24.001091 54.624367,24.001091 
	C54.624367,32.812244 54.624367,41.537952 54.624367,50.634018 
	C40.500683,50.634018 26.116390,50.634018 11.001387,50.634018 
	C11.001387,42.841587 11.001387,34.771923 11.005742,26.220901 
M27.508635,25.999205 
	C23.084486,25.999205 18.660336,25.999205 14.308542,25.999205 
	C14.308542,33.992947 14.308542,41.379772 14.308542,48.697350 
	C27.330238,48.697350 40.040997,48.697350 52.692127,48.697350 
	C52.692127,41.005260 52.692127,33.618343 52.692127,25.999205 
	C44.425079,25.999205 36.465134,25.999205 27.508635,25.999205 
z"/>
<path fill="#000000" opacity="1.000000" stroke="none" 
	d="
M28.006912,25.999205 
	C36.465134,25.999205 44.425079,25.999205 52.692127,25.999205 
	C52.692127,33.618343 52.692127,41.005260 52.692127,48.697350 
	C40.040997,48.697350 27.330238,48.697350 14.308542,48.697350 
	C14.308542,41.379772 14.308542,33.992947 14.308542,25.999205 
	C18.660336,25.999205 23.084486,25.999205 28.006912,25.999205 
M45.311092,27.004959 
	C39.747211,27.653578 37.879803,32.019073 39.549316,41.371948 
	C31.662355,41.371948 23.875738,41.371948 16.089123,41.371948 
	C16.101469,41.748810 16.113817,42.125668 16.126165,42.502529 
	C27.329945,42.502529 38.533726,42.502529 49.817791,42.502529 
	C49.255333,37.179413 52.075188,31.083752 45.311092,27.004959 
M20.710773,47.000008 
	C30.442423,47.000008 40.174072,47.000008 49.905724,47.000008 
	C49.890011,46.540138 49.874298,46.080269 49.858585,45.620399 
	C38.617531,45.620399 27.376478,45.620399 16.135426,45.620399 
	C16.115799,45.959236 16.096174,46.298077 16.076548,46.636913 
	C17.305891,46.757927 18.535236,46.878941 20.710773,47.000008 
M16.585709,36.070824 
	C17.504690,37.013298 18.689081,38.892952 19.292736,38.722000 
	C21.082350,38.215179 22.642996,36.899872 24.512720,35.767750 
	C21.919630,33.610401 20.891754,32.755249 19.806349,31.852236 
	C20.787237,31.079403 21.460875,30.548651 22.134514,30.017897 
	C22.013363,29.578245 21.892212,29.138592 21.771061,28.698938 
	C20.222599,28.929623 18.150101,28.655163 17.289019,29.548447 
	C16.581207,30.282730 17.330379,32.402710 17.396349,33.910164 
	C17.425905,34.585579 17.363909,35.265003 16.585709,36.070824 
M25.830051,34.993355 
	C29.158855,34.994011 32.490910,35.072777 35.813931,34.934471 
	C36.545883,34.904007 37.245781,34.103451 37.960442,33.657513 
	C37.351078,33.107254 36.761272,32.108768 36.129105,32.081188 
	C32.640766,31.929001 29.137869,31.941191 25.654337,32.143967 
	C25.349463,32.161716 25.148455,33.963783 25.830051,34.993355 
M26.790152,29.999975 
	C30.513399,29.999975 34.236649,29.999975 37.959896,29.999975 
	C37.924522,29.474430 37.889149,28.948885 37.853771,28.423340 
	C33.276371,28.423340 28.698967,28.423340 24.121563,28.423340 
	C24.066397,28.712887 24.011230,29.002434 23.956064,29.291981 
	C24.592175,29.526125 25.228287,29.760267 26.790152,29.999975 
M30.523531,36.999996 
	C28.367809,36.999996 26.212088,36.999996 24.056366,36.999996 
	C24.084541,37.497341 24.112719,37.994690 24.140894,38.492035 
	C28.714586,38.492035 33.288277,38.492035 37.861969,38.492035 
	C37.889984,37.994690 37.917995,37.497341 37.946011,36.999996 
	C35.787872,36.999996 33.629738,36.999996 30.523531,36.999996 
z"/>
<path fill="#F8D468" opacity="1.000000" stroke="none" 
	d="
M45.718098,27.023266 
	C52.075188,31.083752 49.255333,37.179413 49.817791,42.502529 
	C38.533726,42.502529 27.329945,42.502529 16.126165,42.502529 
	C16.113817,42.125668 16.101469,41.748810 16.089123,41.371948 
	C23.875738,41.371948 31.662355,41.371948 39.549316,41.371948 
	C37.879803,32.019073 39.747211,27.653578 45.718098,27.023266 
z"/>
<path fill="#F8D468" opacity="1.000000" stroke="none" 
	d="
M20.237677,46.999981 
	C18.535236,46.878941 17.305891,46.757927 16.076548,46.636913 
	C16.096174,46.298077 16.115799,45.959236 16.135426,45.620399 
	C27.376478,45.620399 38.617531,45.620399 49.858585,45.620399 
	C49.874298,46.080269 49.890011,46.540138 49.905724,47.000008 
	C40.174072,47.000008 30.442423,47.000008 20.237677,46.999981 
z"/>
<path fill="#F8D667" opacity="1.000000" stroke="none" 
	d="
M16.964584,36.006714 
	C17.363909,35.265003 17.425905,34.585579 17.396349,33.910164 
	C17.330379,32.402710 16.581207,30.282730 17.289019,29.548447 
	C18.150101,28.655163 20.222599,28.929623 21.771061,28.698938 
	C21.892212,29.138592 22.013363,29.578245 22.134514,30.017897 
	C21.460875,30.548651 20.787237,31.079403 19.806349,31.852236 
	C20.891754,32.755249 21.919630,33.610401 24.512720,35.767750 
	C22.642996,36.899872 21.082350,38.215179 19.292736,38.722000 
	C18.689081,38.892952 17.504690,37.013298 16.964584,36.006714 
z"/>
<path fill="#F8D368" opacity="1.000000" stroke="none" 
	d="
M25.364628,34.965210 
	C25.148455,33.963783 25.349463,32.161716 25.654337,32.143967 
	C29.137869,31.941191 32.640766,31.929001 36.129105,32.081188 
	C36.761272,32.108768 37.351078,33.107254 37.960442,33.657513 
	C37.245781,34.103451 36.545883,34.904007 35.813931,34.934471 
	C32.490910,35.072777 29.158855,34.994011 25.364628,34.965210 
z"/>
<path fill="#F8D568" opacity="1.000000" stroke="none" 
	d="
M26.327274,29.997192 
	C25.228287,29.760267 24.592175,29.526125 23.956064,29.291981 
	C24.011230,29.002434 24.066397,28.712887 24.121563,28.423340 
	C28.698967,28.423340 33.276371,28.423340 37.853771,28.423340 
	C37.889149,28.948885 37.924522,29.474430 37.959896,29.999975 
	C34.236649,29.999975 30.513399,29.999975 26.327274,29.997192 
z"/>
<path fill="#F8D468" opacity="1.000000" stroke="none" 
	d="
M30.997566,36.999996 
	C33.629738,36.999996 35.787872,36.999996 37.946011,36.999996 
	C37.917995,37.497341 37.889984,37.994690 37.861969,38.492035 
	C33.288277,38.492035 28.714586,38.492035 24.140894,38.492035 
	C24.112719,37.994690 24.084541,37.497341 24.056366,36.999996 
	C26.212088,36.999996 28.367809,36.999996 30.997566,36.999996 
z"/>
</svg>